<?xml version="1.0" encoding="UTF-8"?>
<svg width="120" height="120" viewBox="0 0 120 120" fill="none" xmlns="http://www.w3.org/2000/svg">
    <!-- Pot -->
    <path d="M40 90 L80 90 L85 110 H35 L40 90" fill="#C17E61"/>
    
    <!-- Cactus Body -->
    <path d="M55 40 Q55 20 60 20 Q65 20 65 40 L65 90 L55 90 L55 40" fill="#65A30D"/>
    
    <!-- Right Arm -->
    <path d="M65 50 Q65 45 70 45 Q75 45 75 65 L75 90 L65 90" fill="#65A30D"/>
    
    <!-- Left Arm -->
    <path d="M55 60 Q55 55 50 55 Q45 55 45 75 L45 90 L55 90" fill="#65A30D"/>
    
    <!-- Flower -->
    <circle cx="70" cy="45" r="3" fill="#EC4899"/>
    
    <!-- Happy Face -->
    <circle cx="58" cy="35" r="1" fill="#422006"/>
    <circle cx="62" cy="35" r="1" fill="#422006"/>
    <path d="M57 40 Q60 42 63 40" stroke="#422006" stroke-width="1" fill="none"/>
</svg>
